<?xml version="1.0" encoding="UTF-8"?>
<svg version="1.1" xmlns="http://www.w3.org/2000/svg" width="512" height="512">
<path d="M0 0 C168.96 0 337.92 0 512 0 C512 168.96 512 337.92 512 512 C343.04 512 174.08 512 0 512 C0 343.04 0 174.08 0 0 Z " fill="#1C3329" transform="translate(0,0)"/>
<path d="M0 0 C0.33 -0.66 0.66 -1.32 1 -2 C5.29 -2 9.58 -2 14 -2 C14 13.84 14 29.68 14 46 C13.34 46 12.68 46 12 46 C11.9071875 46.804375 11.9071875 46.804375 11.8125 47.625 C10.63057183 51.07986696 8.69913645 53.60389976 6 56 C-0.48502142 58.91164227 -8.91282042 59.30529868 -15.703125 57.13671875 C-17.86601049 56.17737438 -19.93503422 55.15286206 -22 54 C-22.66 53.67 -23.32 53.34 -24 53 C-22.87548273 50.0280615 -21.77706209 47.66559313 -20 45 C-19.43152344 45.144375 -18.86304688 45.28875 -18.27734375 45.4375 C-12.62572936 46.79615187 -7.39908527 47.80504651 -1.625 46.4375 C1.00450732 44.11139737 0.7513549 41.35670889 1 38 C0.34 38 -0.32 38 -1 38 C-1 38.66 -1 39.32 -1 40 C-6.68746075 42.69185527 -11.93712219 42.35209065 -18 41 C-20.5625 38.625 -20.5625 38.625 -22 36 C-22.53625 35.484375 -23.0725 34.96875 -23.625 34.4375 C-27.6174508 30.26357416 -27.36606082 25.7207812 -27.375 20.25 C-27.39949219 19.4765625 -27.42398437 18.703125 -27.44921875 17.90625 C-27.48170292 11.45272874 -25.85138383 6.26120396 -21.55615234 1.34863281 C-16.23994199 -3.25863829 -5.65222918 -3.76815279 0 0 Z " fill="#ECB477" transform="translate(349,235)"/>
<path d="M0 0 C4.95 0 9.9 0 15 0 C18.79310345 10.24137931 18.79310345 10.24137931 19.9375 14.4375 C20.86500777 17.54737899 21.96180938 20.3618066 23.234375 23.33984375 C26.11659774 30.20037502 28.73515518 37.14516841 31.3125 44.125 C31.76689453 45.341875 32.22128906 46.55875 32.68945312 47.8125 C33.11806641 48.97007812 33.54667969 50.12765625 33.98828125 51.3203125 C34.56896362 52.88676514 34.56896362 52.88676514 35.16137695 54.48486328 C36 57 36 57 36 59 C30.72 59 25.44 59 20 59 C17 50.25 17 50.25 17 48 C10.73 48 4.46 48 -2 48 C-2.309375 49.629375 -2.61875 51.25875 -2.9375 52.9375 C-3.875 57.875 -3.875 57.875 -5 59 C-7.69654854 59.07319621 -10.36691458 59.09242537 -13.0625 59.0625 C-14.20041992 59.05573242 -14.20041992 59.05573242 -15.36132812 59.04882812 C-17.24091871 59.0370068 -19.12046899 59.01907078 -21 59 C-19.07694561 52.34960166 -16.93162609 45.82838559 -14.53125 39.3359375 C-14.20966919 38.45902252 -13.88808838 37.58210754 -13.5567627 36.67861938 C-12.54058895 33.90972781 -11.52034224 31.1423578 -10.5 28.375 C-9.81614249 26.51311769 -9.13254667 24.65113924 -8.44921875 22.7890625 C-5.65607823 15.18384689 -2.85155547 7.58353165 0 0 Z " fill="#E9B174" transform="translate(46,218)"/>
<path d="M0 0 C4.62 0 9.24 0 14 0 C18.38389536 10.2377359 22.32229322 20.62383161 26.21313477 31.05712891 C27.32130661 34.02357427 28.43891737 36.98636118 29.55664062 39.94921875 C30.26360222 41.84092866 30.97000309 43.73284824 31.67578125 45.625 C32.01007645 46.50728271 32.34437164 47.38956543 32.688797 48.29858398 C33.14508736 49.53137085 33.14508736 49.53137085 33.6105957 50.7890625 C33.87975296 51.50787598 34.14891022 52.22668945 34.42622375 52.96728516 C35 55 35 55 35 59 C29.72 59 24.44 59 19 59 C18.34 55.37 17.68 51.74 17 48 C10.73 48.33 4.46 48.66 -2 49 C-4.33084658 53.17155008 -4.33084658 53.17155008 -5 59 C-10.28 59 -15.56 59 -21 59 C-19.04050467 51.47127185 -16.75085339 44.21589137 -14.0234375 36.93359375 C-13.65272125 35.93288345 -13.282005 34.93217316 -12.90005493 33.90113831 C-11.72944294 30.744935 -10.55219509 27.59125297 -9.375 24.4375 C-8.57771692 22.28856282 -7.78083829 20.13947553 -6.984375 17.99023438 C-6.22692734 15.95038532 -5.46912767 13.91066693 -4.7109375 11.87109375 C-4.3536557 10.90973007 -3.9963739 9.94836639 -3.62826538 8.95787048 C-3.2976712 8.07257156 -2.96707703 7.18727264 -2.62646484 6.27514648 C-2.19036392 5.10579811 -2.19036392 5.10579811 -1.74545288 3.91282654 C-1 2 -1 2 0 0 Z " fill="#E9B275" transform="translate(432,218)"/>
<path d="M0 0 C1.19625 0.01546875 2.3925 0.0309375 3.625 0.046875 C6.52726599 0.22154842 9.17580091 0.58674112 12 1.25 C12 1.91 12 2.57 12 3.25 C13.36125 3.5284375 13.36125 3.5284375 14.75 3.8125 C19.27997992 5.81614496 19.928354 7.79979749 22 12.25 C24.49432314 20.14593681 23.77068501 28.96867723 20 36.25 C17.5 38.5625 17.5 38.5625 15 40.25 C14.505 40.806875 14.01 41.36375 13.5 41.9375 C9.37630091 45.5457367 2.15488165 44.55703057 -3 44.25 C-8.62199173 43.21930152 -12.03548797 41.39471712 -16 37.25 C-20.3394712 30.07192735 -19.70996717 21.41918748 -18.3125 13.4375 C-16.95284887 8.08507057 -14.22494885 4.89435799 -9.76953125 1.6015625 C-6.31334152 -0.08509709 -3.83006364 -0.08254447 0 0 Z " fill="#ECB477" transform="translate(175,232.75)"/>
<path d="M0 0 C3.92791477 1.8385984 5.48716427 3.8108753 7.9375 7.375 C7.9375 8.035 7.9375 8.695 7.9375 9.375 C8.5975 9.375 9.2575 9.375 9.9375 9.375 C11.0951202 11.69024039 11.06652305 13.04616062 11.0703125 15.62109375 C11.07224609 16.87696289 11.07224609 16.87696289 11.07421875 18.15820312 C11.07035156 19.03412109 11.06648438 19.91003906 11.0625 20.8125 C11.06830078 22.12057617 11.06830078 22.12057617 11.07421875 23.45507812 C11.07292969 24.29361328 11.07164062 25.13214844 11.0703125 25.99609375 C11.06918457 26.7636499 11.06805664 27.53120605 11.06689453 28.32202148 C10.9375 30.375 10.9375 30.375 9.9375 33.375 C9.2775 33.375 8.6175 33.375 7.9375 33.375 C7.710625 33.931875 7.48375 34.48875 7.25 35.0625 C5.25664835 38.57459577 2.57630251 41.55559875 -1.0625 43.375 C-9.51127824 43.88310834 -17.09535152 44.04519609 -24.3125 39.1875 C-29.59841555 33.78145001 -30.62527443 28.22504058 -30.5625 20.9375 C-30.55822998 20.18831299 -30.55395996 19.43912598 -30.54956055 18.66723633 C-30.36897802 12.81904246 -29.29433319 8.62983228 -25.0625 4.375 C-18.03227846 -2.00124745 -9.13715423 -2.01017393 0 0 Z " fill="#ECB577" transform="translate(276.0625,233.625)"/>
<path d="M0 0 C13.2 0 26.4 0 40 0 C40 3.63 40 7.26 40 11 C39 12 39 12 36.68334961 12.11352539 C35.68311768 12.10828857 34.68288574 12.10305176 33.65234375 12.09765625 C32.57275391 12.09443359 31.49316406 12.09121094 30.38085938 12.08789062 C29.24455078 12.07951172 28.10824219 12.07113281 26.9375 12.0625 C25.79732422 12.05798828 24.65714844 12.05347656 23.48242188 12.04882812 C20.65492582 12.0369976 17.82745655 12.0190615 15 12 C15 15.96 15 19.92 15 24 C22.26 24 29.52 24 37 24 C37 27.96 37 31.92 37 36 C29.74 36 22.48 36 15 36 C15 43.59 15 51.18 15 59 C10.05 59 5.1 59 0 59 C0 39.53 0 20.06 0 0 Z " fill="#E6AE72" transform="translate(204,218)"/>
<path d="M0 0 C1.06734375 -0.01160156 1.06734375 -0.01160156 2.15625 -0.0234375 C7.13261954 -0.00486896 10.12460875 0.3877848 13.66796875 3.90625 C14.16941406 4.5146875 14.67085938 5.123125 15.1875 5.75 C15.69667969 6.3584375 16.20585937 6.966875 16.73046875 7.59375 C19.48851428 11.19193863 19.11419806 14.53144796 19.0625 18.875 C19.041875 21.30875 19.02125 23.7425 19 26.25 C10.42 26.25 1.84 26.25 -7 26.25 C-7 27.24 -7 28.23 -7 29.25 C-6.34 29.25 -5.68 29.25 -5 29.25 C-3.375 30.625 -3.375 30.625 -2 32.25 C-2 32.91 -2 33.57 -2 34.25 C3.30750819 33.92111595 6.78452259 33.68483344 11 30.25 C13.84004362 30.33606193 14.7979159 31.06138817 16.875 33 C18 35.25 18 35.25 17.1875 38 C16.795625 38.7425 16.40375 39.485 16 40.25 C15.34 40.25 14.68 40.25 14 40.25 C13.67 41.24 13.34 42.23 13 43.25 C6.0940817 46.02125906 -1.26139479 46.06359355 -8.1875 43.5625 C-12.23774137 41.83020499 -14.7356943 40.16107348 -17 36.25 C-17 35.59 -17 34.93 -17 34.25 C-17.66 34.25 -18.32 34.25 -19 34.25 C-21.85188466 27.83325952 -22.15106298 20.39382672 -20.27734375 13.6484375 C-18.0805745 8.32994352 -15.18568756 4.39132301 -10.34375 1.13671875 C-6.93386618 -0.15335396 -3.59304589 -0.03905485 0 0 Z " fill="#E9B275" transform="translate(390,232.75)"/>
<path d="M0 0 C4.62 0 9.24 0 14 0 C14.06058594 2.29839844 14.12117188 4.59679687 14.18359375 6.96484375 C14.24534005 9.18224524 14.30874554 11.39959346 14.37231445 13.61694336 C14.41571985 15.16214289 14.45739071 16.70739214 14.49731445 18.25268555 C14.55488199 20.46939096 14.61861424 22.6858448 14.68359375 24.90234375 C14.70030624 25.5971434 14.71701874 26.29194305 14.73423767 27.00779724 C14.56502856 30.28762029 14.56502856 30.28762029 16 33 C17.34747084 33.23075082 18.70377565 33.41153063 20.0625 33.5625 C21.361875 33.706875 22.66125 33.85125 24 34 C24 33.34 24 32.68 24 32 C24.66 32 25.32 32 26 32 C26 21.77 26 11.54 26 1 C30.29 1 34.58 1 39 1 C39 14.86 39 28.72 39 43 C35.04 43 31.08 43 27 43 C27 41.68 27 40.36 27 39 C26.34 39 25.68 39 25 39 C25 39.66 25 40.32 25 41 C24.34 41 23.68 41 23 41 C23 41.66 23 42.32 23 43 C20.04497399 44.69242399 17.90004978 45.27328801 14.5 45.25 C13.7471875 45.25515625 12.994375 45.2603125 12.21875 45.265625 C8.88715552 44.86677214 6.79455649 43.88878961 4.55078125 41.37890625 C4.14214844 40.77949219 3.73351562 40.18007813 3.3125 39.5625 C2.89613281 38.96566406 2.47976562 38.36882812 2.05078125 37.75390625 C-0.32782217 33.78367228 -0.13027541 29.95239577 -0.09765625 25.48828125 C-0.0962413 24.76005661 -0.09482635 24.03183197 -0.09336853 23.28153992 C-0.08777659 20.95848461 -0.07522562 18.63552612 -0.0625 16.3125 C-0.05748396 14.73632952 -0.05292123 13.16015752 -0.04882812 11.58398438 C-0.0378098 7.72261902 -0.02055074 3.86132592 0 0 Z " fill="#EEB678" transform="translate(84,233)"/>
<path d="M0 0 C4.62 0 9.24 0 14 0 C14 3.63 14 7.26 14 11 C16.31 11 18.62 11 21 11 C21 14.3 21 17.6 21 21 C18.69 21 16.38 21 14 21 C14 28.92 14 36.84 14 45 C16.31 45 18.62 45 21 45 C21 47.97 21 50.94 21 54 C16.53917226 56.23041387 10.86634331 55.15370607 6.125 54.3125 C2.34223786 52.7237399 1.71805926 51.65900016 0 48 C-0.34057617 44.95385742 -0.34057617 44.95385742 -0.29296875 41.60546875 C-0.28330078 40.40341797 -0.27363281 39.20136719 -0.26367188 37.96289062 C-0.23853516 36.71701172 -0.21339844 35.47113281 -0.1875 34.1875 C-0.17396484 32.92228516 -0.16042969 31.65707031 -0.14648438 30.35351562 C-0.11118318 27.23524357 -0.06186819 24.11783958 0 21 C-1.98 21 -3.96 21 -6 21 C-6 17.7 -6 14.4 -6 11 C-4.02 11 -2.04 11 0 11 C0 7.37 0 3.74 0 0 Z " fill="#EAB275" transform="translate(133,222)"/>
<path d="M0 0 C4.95 0 9.9 0 15 0 C15 19.47 15 38.94 15 59 C10.05 59 5.1 59 0 59 C0 39.53 0 20.06 0 0 Z " fill="#E8AF73" transform="translate(472,218)"/>
<path d="M0 0 C4.62 0 9.24 0 14 0 C14.33 0.66 14.66 1.32 15 2 C15.99 1.34 16.98 0.68 18 0 C20.04296875 -0.1953125 20.04296875 -0.1953125 22.1875 -0.125 C24.0746875 -0.063125 24.0746875 -0.063125 26 0 C26 3.96 26 7.92 26 12 C23.72135417 12.1953125 21.44270833 12.390625 19.1640625 12.5859375 C16.79665809 12.82892588 16.79665809 12.82892588 15 15 C14.62703444 18.00972657 14.62703444 18.00972657 14.5859375 21.5390625 C14.54726563 22.84101563 14.50859375 24.14296875 14.46875 25.484375 C14.43729237 26.86457862 14.40604509 28.24478704 14.375 29.625 C14.33682066 31.01304541 14.29776895 32.40106711 14.2578125 33.7890625 C14.16327312 37.19248027 14.08053771 40.59622212 14 44 C9.38 44 4.76 44 0 44 C0 29.48 0 14.96 0 0 Z " fill="#EAB275" transform="translate(293,233)"/>
<path d="M0 0 C2.20703125 0.9765625 2.20703125 0.9765625 4 3 C4.49964508 5.90797297 4.37538973 8.74807547 4.25 11.6875 C4.23195313 12.48478516 4.21390625 13.28207031 4.1953125 14.10351562 C4.14822247 16.06952449 4.07647899 18.03491494 4 20 C3.01 20.33 2.02 20.66 1 21 C0.67 21.66 0.34 22.32 0 23 C-3.3125 23.3125 -3.3125 23.3125 -7 23 C-10.42152354 18.97559932 -10.4573737 14.86932975 -10.375 9.8125 C-10.38660156 9.08869141 -10.39820313 8.36488281 -10.41015625 7.61914062 C-10.3984375 5.51953125 -10.3984375 5.51953125 -10 2 C-6.28986601 -0.47342266 -4.38939738 -0.38503486 0 0 Z " fill="#2C392C" transform="translate(270,244)"/>
<path d="M0 0 C1.91015625 0.23046875 1.91015625 0.23046875 3.91015625 2.23046875 C5.45351857 8.40391803 5.85857512 15.26665977 3.91015625 21.35546875 C1.65540546 23.46929761 0.90358777 23.63536349 -2.08984375 23.85546875 C-5.08327527 23.63536349 -5.83509296 23.46929761 -8.08984375 21.35546875 C-10.26743674 14.55049066 -9.48883205 7.86296581 -7.08984375 1.23046875 C-5.19495423 -0.66442077 -2.51845229 0.05027763 0 0 Z " fill="#283C2C" transform="translate(179.08984375,242.76953125)"/>
<path d="M0 0 C2.0331579 3.04973685 2.2548508 3.68956868 2.265625 7.125 C2.26820313 7.91390625 2.27078125 8.7028125 2.2734375 9.515625 C2.26570313 10.33546875 2.25796875 11.1553125 2.25 12 C2.25773437 12.81984375 2.26546875 13.6396875 2.2734375 14.484375 C2.27085937 15.27328125 2.26828125 16.0621875 2.265625 16.875 C2.26336914 17.59429687 2.26111328 18.31359375 2.25878906 19.0546875 C2 21 2 21 0 24 C-3.625 24.1875 -3.625 24.1875 -7 24 C-11.1550317 18.41667616 -11.46657676 13.86789696 -11.53125 6.98828125 C-10.34936455 0.34017557 -6.21547097 -0.8057092 0 0 Z " fill="#253329" transform="translate(347,243)"/>
<path d="M0 0 C0.33 0 0.66 0 1 0 C2.905247 5.10334017 4.42589023 9.46342706 4 15 C4.66 15 5.32 15 6 15 C6 16.65 6 18.3 6 20 C2.04 20 -1.92 20 -6 20 C-6 18.68 -6 17.36 -6 16 C-5.34 16 -4.68 16 -4 16 C-3.94392578 15.14728516 -3.94392578 15.14728516 -3.88671875 14.27734375 C-3.43021378 8.91564807 -2.36510918 4.8330492 0 0 Z " fill="#433C2E" transform="translate(439,235)"/>
<path d="M0 0 C0.66 0.33 1.32 0.66 2 1 C2.6328125 3.94140625 2.6328125 3.94140625 3.125 7.5625 C3.29257812 8.76003906 3.46015625 9.95757812 3.6328125 11.19140625 C3.75398438 12.11824219 3.87515625 13.04507813 4 14 C4.66 14 5.32 14 6 14 C6 15.98 6 17.96 6 20 C2.37 20 -1.26 20 -5 20 C-5 18.02 -5 16.04 -5 14 C-4.34 14 -3.68 14 -3 14 C-2.95101562 13.40832031 -2.90203125 12.81664062 -2.8515625 12.20703125 C-2.43543133 7.80895528 -1.95034405 4.03071103 0 0 Z " fill="#34452E" transform="translate(53,235)"/>
<path d="M0 0 C3.5 0.25 3.5 0.25 5.5 2.25 C5.5 3.57 5.5 4.89 5.5 6.25 C1.54 6.25 -2.42 6.25 -6.5 6.25 C-5.02727273 0.35909091 -5.02727273 0.35909091 0 0 Z " fill="#1E2D28" transform="translate(390.5,243.75)"/>
<path d="M0 0 C0.66 0 1.32 0 2 0 C1.67 2.31 1.34 4.62 1 7 C0.34 6.01 -0.32 5.02 -1 4 C-1.99 4.33 -2.98 4.66 -4 5 C-5.51766539 5.11632729 -7.0404346 5.17496239 -8.5625 5.1875 C-9.74005859 5.20876953 -9.74005859 5.20876953 -10.94140625 5.23046875 C-13 5 -13 5 -15 3 C-14.00419922 3.01740234 -14.00419922 3.01740234 -12.98828125 3.03515625 C-6.43693213 3.11893409 -6.43693213 3.11893409 0 2 C0 1.34 0 0.68 0 0 Z " fill="#8F5F3D" transform="translate(348,273)"/>
<path d="M0 0 C0.66 0.33 1.32 0.66 2 1 C2.36871508 5.54748603 2.36871508 5.54748603 0.625 7.6875 C0.08875 8.120625 -0.4475 8.55375 -1 9 C-1.66 9.66 -2.32 10.32 -3 11 C-2.69217504 9.35328588 -2.37860766 7.70764424 -2.0625 6.0625 C-1.88847656 5.14597656 -1.71445312 4.22945312 -1.53515625 3.28515625 C-1 1 -1 1 0 0 Z " fill="#7F603C" transform="translate(53,235)"/>
<path d="M0 0 C-1.28519565 2.86697492 -2.57129254 4.97607712 -5 7 C-5.66 7 -6.32 7 -7 7 C-3.86206897 0 -3.86206897 0 0 0 Z " fill="#CD925E" transform="translate(256,235)"/>
<path d="M0 0 C-1.49097658 3.7952131 -3.75700849 5.61042731 -7 8 C-4.18918919 0 -4.18918919 0 0 0 Z " fill="#C88E5B" transform="translate(165,236)"/>
</svg>
